<?xml version="1.0" standalone="no"?>
<!DOCTYPE svg PUBLIC "-//W3C//DTD SVG 20010904//EN"
 "http://www.w3.org/TR/2001/REC-SVG-20010904/DTD/svg10.dtd">
<svg version="1.0" xmlns="http://www.w3.org/2000/svg"
 width="256.000000pt" height="256.000000pt" viewBox="0 0 256.000000 256.000000"
 preserveAspectRatio="xMidYMid meet">
<metadata>
Created by potrace 1.14, written by Peter Selinger 2001-2017
</metadata>
<g transform="translate(0.000000,256.000000) scale(0.100000,-0.100000)"
fill="#000000" stroke="none">
<path d="M1972 2115 c-78 -62 -97 -73 -115 -66 -12 5 -92 36 -177 69 l-155 60
-199 -43 -199 -43 -105 45 c-97 41 -108 44 -132 32 -113 -58 -400 -215 -400
-221 0 -3 59 -90 131 -192 147 -209 112 -182 314 -236 44 -12 84 -26 89 -30 5
-5 0 -23 -10 -41 -16 -27 -31 -36 -88 -51 l-68 -20 -39 31 c-21 17 -41 31 -46
31 -4 0 -21 -23 -38 -51 l-30 -51 -175 -59 c-144 -49 -204 -64 -345 -85 -93
-14 -172 -27 -174 -30 -2 -2 48 -4 112 -4 64 0 117 -3 117 -6 0 -4 -17 -22
-37 -41 l-38 -34 91 45 90 46 154 0 155 0 86 -60 c48 -33 118 -71 157 -86 l70
-25 7 -107 c8 -131 65 -357 105 -418 15 -23 67 -111 115 -197 l88 -155 86 30
c47 17 87 31 88 32 2 2 -168 129 -210 157 -9 6 49 99 62 99 3 0 38 -7 77 -16
l72 -17 71 26 c40 15 76 27 80 27 5 0 36 -36 71 -80 35 -44 66 -80 69 -80 14
0 131 54 131 60 0 4 -31 37 -70 74 -38 36 -70 68 -70 70 0 2 57 23 128 46 70
23 132 47 138 54 9 9 51 177 98 399 3 12 -2 17 -17 17 -22 -1 -87 -74 -87 -98
0 -6 -9 -16 -20 -22 -11 -6 -20 -19 -20 -29 0 -11 -16 -32 -36 -47 -20 -16
-47 -41 -62 -56 -14 -16 -34 -28 -44 -28 -11 0 -29 -5 -40 -11 -17 -9 -24 -8
-33 4 -6 9 -24 21 -39 27 -23 8 -25 13 -16 29 15 28 13 33 -10 26 -22 -7 -26
5 -9 22 8 8 6 19 -7 42 -19 33 -29 38 -39 21 -3 -5 -13 -10 -21 -10 -13 0 -12
6 6 35 25 40 21 52 -35 105 -25 23 -39 31 -42 22 -3 -6 -9 -10 -13 -7 -5 3 -5
16 0 30 10 26 -1 40 -34 46 -12 3 -23 16 -27 33 -9 33 -24 46 -55 46 -24 0
-34 18 -34 61 0 19 -6 32 -17 35 -56 18 -73 28 -72 43 0 9 3 11 5 5 4 -9 14
-9 38 -2 29 9 44 5 125 -31 51 -23 96 -39 102 -36 5 4 9 20 9 36 0 22 13 44
48 82 26 29 51 55 55 58 5 3 5 22 2 42 -6 29 -12 37 -36 42 -16 4 -37 4 -46 1
-22 -6 -99 14 -131 34 -46 29 -95 170 -60 170 9 0 26 9 40 19 l24 19 1 -54 c2
-69 21 -100 79 -125 93 -39 221 -17 243 44 10 27 -11 105 -45 164 -29 50 -57
60 -157 59 -57 -1 -65 1 -50 12 10 7 33 12 53 10 19 -1 44 3 54 9 30 17 91
-15 111 -57 23 -48 75 -195 75 -213 0 -8 -11 -26 -25 -40 l-26 -25 47 -27 46
-27 25 25 c14 13 26 35 26 48 2 28 47 78 47 53 0 -20 2 -19 91 40 72 47 76 52
135 162 l61 114 -84 120 c-46 66 -87 120 -91 119 -4 0 -49 -34 -100 -74z m-80
-207 c36 2 26 -16 -11 -23 -56 -9 -65 -24 -59 -98 5 -60 5 -61 -8 -29 -8 18
-17 53 -21 77 -5 39 -3 47 18 64 15 13 31 18 44 14 11 -4 28 -6 37 -5z m76
-144 c-3 -27 -4 -26 -9 8 -3 22 -1 34 4 29 5 -5 7 -21 5 -37z m-1 -96 c-3 -8
-6 -5 -6 6 -1 11 2 17 5 13 3 -3 4 -12 1 -19z m-812 -226 c-3 -3 -11 0 -18 7
-9 10 -8 11 6 5 10 -3 15 -9 12 -12z m60 -22 c3 -5 -1 -10 -9 -10 -9 0 -16 5
-16 10 0 6 4 10 9 10 6 0 13 -4 16 -10z"/>
<path d="M1930 1549 c0 -16 5 -61 11 -100 11 -64 14 -69 33 -63 12 3 81 29
154 56 95 35 141 48 160 43 15 -3 36 -8 47 -11 19 -5 19 -4 3 9 -24 19 -23 24
10 41 31 17 16 19 -48 6 -30 -6 -96 -6 -194 2 -129 11 -150 15 -154 30 -7 29
-22 21 -22 -13z"/>
<path d="M1917 1463 c-8 -7 -46 -13 -139 -20 -77 -5 -89 -18 -26 -26 70 -9
198 26 176 48 -3 3 -8 2 -11 -2z"/>
<path d="M1950 1292 c0 -5 11 -19 25 -32 14 -13 25 -31 25 -40 0 -9 12 -22 26
-28 29 -14 29 -13 -24 61 -31 43 -52 59 -52 39z"/>
<path d="M1634 1258 c-3 -5 8 -8 25 -8 19 0 34 -7 40 -17 11 -21 95 -55 116
-47 23 9 29 44 11 63 -13 12 -36 16 -102 16 -47 0 -88 -3 -90 -7z"/>
<path d="M2040 1161 c0 -5 14 -23 30 -41 17 -18 35 -40 40 -49 8 -14 9 -14 10
0 0 18 -58 99 -71 99 -5 0 -9 -4 -9 -9z"/>
</g>
</svg>
